PathFileType	4	(X/Y/Z)	Patient4_TMGait_0pt7_02_right_20.trc.trc
DataRate	CameraRate	NumFrames	NumMarkers	Units	OrigDataRate	OrigDataStartFrame	OrigNumFrames
85.889570552147	85.889570552147	5	33	mm	85.889570552147	53	       141
Frame#	Time	Sacral			L.Shoulder			Chest			R.Shoulder			Neck			R.ASIS			L.ASIS			R.Thigh.Superior			R.Thigh.Lateral			R.Thigh.Inferior			R.Patella			L.Thigh.Superior			L.Thigh.Lateral			L.Thigh.Inferior			L.Patella			L.Shank.Superior			L.Shank.Lateral			L.Shank.Inferior			R.Shank.Superior			R.Shank.Lateral			R.Shank.Inferior			R.Heel			R.Midfoot.Superior			R.Midfoot.Lateral			R.Toe			L.Heel			L.Midfoot.Lateral			L.Midfoot.Superior			L.Toe			L.Elbow			L.Wrist			R.Elbow			R.Wrist			
		X1	Y1	Z1	X2	Y2	Z2	X3	Y3	Z3	X4	Y4	Z4	X5	Y5	Z5	X6	Y6	Z6	X7	Y7	Z7	X8	Y8	Z8	X9	Y9	Z9	X10	Y10	Z10	X11	Y11	Z11	X12	Y12	Z12	X13	Y13	Z13	X14	Y14	Z14	X15	Y15	Z15	X16	Y16	Z16	X17	Y17	Z17	X18	Y18	Z18	X19	Y19	Z19	X20	Y20	Z20	X21	Y21	Z21	X22	Y22	Z22	X23	Y23	Z23	X24	Y24	Z24	X25	Y25	Z25	X26	Y26	Z26	X27	Y27	Z27	X28	Y28	Z28	X29	Y29	Z29	X30	Y30	Z30	X31	Y31	Z31	X32	Y32	Z32	X33	Y33	Z33	

53	22.695428571429	839.582896878414	1016.798536898466	538.777157123025	1022.950825414329	1432.404946672006	339.371328550543	1143.090898901211	1352.022051891271	484.397231045999	1093.437834461455	1435.486328132317	666.705072734641	1055.257529924608	1492.713919392986	491.689982759161	1070.877303824082	943.391949438920	638.773563286451	1037.231672615261	963.156485010151	366.432875576315	1098.170222969094	740.684657090654	612.498785706563	1011.254449776832	635.923843110993	671.667775853805	1085.218515044535	580.582537144714	591.316909156438	1080.814251071960	493.824274809971	596.251163895801	1132.863871782814	806.346786181094	396.098010225127	1108.394976769909	677.313493470068	311.629721375422	1219.720083933940	627.296923642724	372.139944732562	1246.638720422955	540.939465125541	360.910313553719	1192.733305029671	464.417654356386	355.061175798936	1061.493750856496	394.133943112481	309.985008673767	1078.309100743730	264.858632873622	363.856822989507	1052.379187894934	406.529442301064	601.766210474962	979.340697450804	302.650681172281	661.471879021221	1021.885432683252	208.411654117072	595.532852578729	887.475133151048	44.055465169602	559.830348656801	1059.231431383059	97.761613174053	598.160719991563	970.455676898097	36.894457766198	634.041347516367	1178.726025893228	43.259498343514	624.344563588650	908.660687585386	159.023687467625	406.988782250020	971.272255578458	129.830741681879	322.943202134685	1072.508601541050	160.668949876531	341.203869432492	1172.047210839295	70.654897027022	305.393292693221	937.221531533621	1085.512871144064	243.208997213656	1038.768253556653	844.698927079950	241.331396280826	1110.738701221292	1090.816165767324	801.033866655049	1279.255224000027	894.241060114087	762.215778265732	
54	22.707071428571	838.409075785338	1017.133502697043	540.184202661914	1020.606450726586	1432.293311280814	339.771527602578	1141.765950004475	1352.005312864006	483.965031120469	1093.582333807533	1435.632200251536	666.630539362402	1054.001887956395	1492.780898687678	491.900955182053	1069.950491503606	943.399367282096	638.931452352425	1035.142224592542	963.307668807336	366.807306560765	1094.606793084601	740.006466263199	612.152690540966	1006.768454973254	636.000495285867	672.221088010980	1079.405172522375	579.777173404806	591.587800480578	1073.858739410192	493.452551268832	596.531231207128	1131.507079366725	808.382141860570	396.562249709569	1109.074546441942	679.257004327278	311.496495395672	1220.565944454746	630.564582144314	372.362530885500	1249.281506046572	545.565894764818	360.747004762588	1198.738790317433	467.855488985708	354.404340360858	1071.473599836463	390.895004557491	309.021719085961	1095.566293667792	262.239960565955	362.140299457367	1045.304428439611	406.335474073317	602.038079103698	972.013588277936	302.613629533344	661.739109901386	1014.205055130166	208.312164277715	595.646445882127	879.295545996065	44.086448633945	559.874156617729	1051.126311592439	97.755492097490	598.201836206400	962.251074597670	36.886154129124	634.054472130054	1170.517998930863	43.136177879684	624.382802621075	932.141791553502	147.430548798719	405.151278113813	995.937583508719	121.528118764783	320.948056441800	1095.527930707817	157.466995481329	339.091210526518	1199.487950259067	72.654891687943	303.039994822620	929.983790024397	1086.173891611598	245.449575221243	1012.119115272651	837.821087197348	242.008380909331	1121.684754051994	1092.044928503187	800.747836936239	1302.466313250972	908.692236052681	755.243580421248	
55	22.718714285714	837.285458706773	1017.354922486935	541.370476301761	1018.416713793723	1432.077295339540	340.025211195175	1140.496702035002	1351.864241162265	483.444808966462	1093.666788340536	1435.659973287756	666.434959130979	1052.790428557350	1492.720876279763	491.991568556904	1069.053012891102	943.353276234807	639.064908399705	1033.264858793401	963.291313674079	367.058194940842	1091.094468428517	739.273226345039	611.878474405112	1002.207512503767	636.043132165235	672.724838644724	1073.553585245114	578.935521944838	591.890370945054	1066.859089707431	493.068827227675	596.816815190506	1129.916669458337	809.795373375410	396.982331848709	1109.170923056591	680.590376723182	311.402283109223	1220.699490624717	633.029758044824	372.656391658702	1251.050107222341	549.518846783676	360.769380371651	1203.979817587710	470.877652428706	353.854490399586	1081.308898764479	387.351452755869	307.855828937643	1112.702122678281	259.732750671029	360.260591469162	1038.162196733214	406.138531814663	602.291590199841	964.622380504140	302.557766192254	661.984784423808	1006.483320036596	208.209863865346	595.751153476040	871.102053798347	44.101164664244	559.911695207119	1043.016448316360	97.762463485906	598.253319236348	954.037077843819	36.870918642860	634.065096687375	1162.304880764002	43.048157320895	624.423799753092	956.082881135298	136.116339478781	402.839227935228	1021.061325143978	113.678970181700	318.582679646149	1118.665060770095	154.662660045538	336.796215305163	1226.864478038703	75.356976730578	300.668060204284	922.618112511875	1087.020758862278	247.312515200665	985.937555741973	833.035990508070	242.865259444922	1132.409768368498	1093.523312614448	800.102705326281	1324.535162155489	924.657703465026	747.677917806024	
56	22.730357142857	836.236701050763	1017.460224380624	542.334021769015	1016.399987973541	1431.768071574405	340.130529982294	1139.295332070604	1351.600050536237	482.838239518042	1093.699439844314	1435.567761496014	666.120253850235	1051.641514641962	1492.536447006614	491.958518085238	1068.191086219273	943.258699313995	639.191338245101	1031.615122335761	963.101211223148	367.191509935423	1087.635157927157	738.480693788640	611.717777671115	997.552527666633	636.057422932699	673.187699348754	1067.656750514772	578.064652867232	592.241547799635	1059.814329037613	492.669594049755	597.112936898506	1128.129430519182	810.578411991584	397.362191730405	1108.690512048302	681.293520136893	311.339126743881	1220.158832725704	634.666413899972	372.988655908305	1251.981259419701	552.769342310330	360.971429709739	1208.458296840144	473.463558831624	353.446445010980	1091.000800700039	383.574317472294	306.473922344891	1129.580691216806	257.426930464562	358.290145501288	1030.940096939584	405.941633747182	602.530478042380	957.155441069108	302.490948111384	662.216516329391	998.711447519532	208.110189079462	595.849756770720	862.892221406439	44.096922721497	559.943193771177	1034.895834012756	97.780873449735	598.314398203264	945.813063434880	36.849509802985	634.074637318951	1154.087210448950	42.998954352538	624.465642974517	980.257095401530	125.300345598839	400.063208894472	1046.461283072918	106.443307343126	315.919423490040	1141.740914651874	152.357759605039	334.431971778964	1253.962641327923	78.805461985783	298.510386690010	915.056207454914	1088.109707945529	248.776606265668	960.571559662499	830.228691423032	243.910726903121	1142.911213616616	1095.225222517276	799.077109714544	1345.281518611773	942.012195914583	739.590104192311	
57	22.742000000000	835.288548562563	1017.444525818808	543.076228451266	1014.566245233544	1431.375629704304	340.087017009535	1138.169648670219	1351.217782842045	482.147920925558	1093.684397200507	1435.356080934949	665.687636673953	1050.566199181298	1492.231755283468	491.799128148034	1067.372918798248	943.116861540105	639.319055953598	1030.204436756229	962.733996357056	367.209557140127	1084.228747965112	737.624437182739	611.695402974447	992.796470384633	636.048890485441	673.617104459760	1061.712541781695	577.173394171720	592.647437610841	1052.733038582321	492.250251836185	597.420611416528	1126.192653526433	810.735895675268	397.698277271366	1107.659553659212	681.362192401008	311.285872406626	1218.997573121723	635.462090349216	373.317469659360	1252.124592547171	555.297661568090	361.332594496565	1212.184213757433	475.592745158829	353.198641498864	1100.517893742658	379.629604117113	304.879934393377	1146.040352406544	255.381114895596	356.306475833392	1023.633597398341	405.745098679509	602.757639582644	949.609826334941	302.420654262208	662.441377807624	990.884559813815	208.016566794547	595.944714993114	854.665270274289	44.072198112533	559.969406093591	1026.757167894825	97.807066653901	598.382166506632	937.578544405975	36.822958278323	634.084631038084	1145.864648666593	42.989180204994	624.506170858644	1004.388636605679	115.158862710655	396.871739523718	1071.899418045767	99.926946674762	313.058534552039	1164.537579116763	150.605744412087	332.117682345975	1280.537433932350	82.978841486619	296.790857946025	907.258815210929	1089.487392157043	249.833684125790	936.306553862933	829.210468325391	245.144575445730	1153.187976251974	1097.127529804716	797.654015239309	1364.545101339380	960.594675333372	731.066449556029	
